<?xml version="1.0" standalone="no"?>
<svg xmlns:xlink="http://www.w3.org/1999/xlink" id="wave" style="transform:rotate(0deg); transition: 0.3s" viewBox="0 0 1440 200" version="1.1" xmlns="http://www.w3.org/2000/svg"><defs><linearGradient id="sw-gradient-0" x1="0" x2="0" y1="1" y2="0"><stop stop-color="rgba(255, 255, 255, 1)" offset="0%"/><stop stop-color="rgba(255, 255, 255, 1)" offset="100%"/></linearGradient></defs><path style="transform:translate(0, 0px); opacity:1" fill="url(#sw-gradient-0)" d="M0,40L120,63.3C240,87,480,133,720,126.7C960,120,1200,60,1440,53.3C1680,47,1920,93,2160,96.7C2400,100,2640,60,2880,40C3120,20,3360,20,3600,23.3C3840,27,4080,33,4320,60C4560,87,4800,133,5040,136.7C5280,140,5520,100,5760,100C6000,100,6240,140,6480,160C6720,180,6960,180,7200,176.7C7440,173,7680,167,7920,160C8160,153,8400,147,8640,130C8880,113,9120,87,9360,80C9600,73,9840,87,10080,90C10320,93,10560,87,10800,96.7C11040,107,11280,133,11520,126.7C11760,120,12000,80,12240,80C12480,80,12720,120,12960,130C13200,140,13440,120,13680,93.3C13920,67,14160,33,14400,40C14640,47,14880,93,15120,96.7C15360,100,15600,60,15840,40C16080,20,16320,20,16560,30C16800,40,17040,60,17160,70L17280,80L17280,200L17160,200C17040,200,16800,200,16560,200C16320,200,16080,200,15840,200C15600,200,15360,200,15120,200C14880,200,14640,200,14400,200C14160,200,13920,200,13680,200C13440,200,13200,200,12960,200C12720,200,12480,200,12240,200C12000,200,11760,200,11520,200C11280,200,11040,200,10800,200C10560,200,10320,200,10080,200C9840,200,9600,200,9360,200C9120,200,8880,200,8640,200C8400,200,8160,200,7920,200C7680,200,7440,200,7200,200C6960,200,6720,200,6480,200C6240,200,6000,200,5760,200C5520,200,5280,200,5040,200C4800,200,4560,200,4320,200C4080,200,3840,200,3600,200C3360,200,3120,200,2880,200C2640,200,2400,200,2160,200C1920,200,1680,200,1440,200C1200,200,960,200,720,200C480,200,240,200,120,200L0,200Z"/></svg>