<?xml version="1.0" standalone="no"?><svg xmlns="http://www.w3.org/2000/svg" viewBox="0 0 1440 320"><path fill="#ffffff" fill-opacity="1" d="M0,64L40,101.3C80,139,160,213,240,240C320,267,400,245,480,213.3C560,181,640,139,720,117.3C800,96,880,96,960,128C1040,160,1120,224,1200,240C1280,256,1360,224,1400,208L1440,192L1440,320L1400,320C1360,320,1280,320,1200,320C1120,320,1040,320,960,320C880,320,800,320,720,320C640,320,560,320,480,320C400,320,320,320,240,320C160,320,80,320,40,320L0,320Z"></path></svg>